# xmcd
#
# Track frame offsets:
#	150
#	19772
#	37569
#	52535
#	80092
#	99380
#	114182
#	130889
#	146374
#	165833
#	182394
#	198962
#	214067
#	232028
#	250696
#	270479
#	289144
#
# Disc length: 4091 seconds
#
# Revision: 1
# Processed by: cddbd v1.5.1PL0 Copyright (c) Steve Scherf et al.
# Submitted via: audiograbber 1.80
#
DISCID=ce0ff911
DTITLE=The Cardigans - Greates Hits 2003
DYEAR=1900
DGENRE=
TTITLE0=For What It's Worth
TTITLE1=You're The Storm
TTITLE2=A Godd Horse
TTITLE3=And Then You Kissen
TTITLE4=Live And Learn
TTITLE5=Lovefool
TTITLE6=My Favourite Game
TTITLE7=Do You Believe
TTITLE8=Marvell Hill
TTITLE9=Carnival
TTITLE10=Erase And Rewind
TTITLE11=Loser
TTITLE12=Your New Cuckoo
TTITLE13=Explode
TTITLE14=Iron Man
TTITLE15=Been It
TTITLE16=Starter
EXTD=
EXTT0=
EXTT1=
EXTT2=
EXTT3=
EXTT4=
EXTT5=
EXTT6=
EXTT7=
EXTT8=
EXTT9=
EXTT10=
EXTT11=
EXTT12=
EXTT13=
EXTT14=
EXTT15=
EXTT16=
PLAYORDER=
